<svg width="50" height="50" viewBox="0 0 50 50" fill="none" xmlns="http://www.w3.org/2000/svg"><g clip-path="url(#clip0)"><path d="M3.124 3.403C-.805 7.483 0 11.819 0 24.99c0 10.938-1.908 21.902 8.08 24.484 3.118.802 30.752.802 33.866-.005 4.159-1.073 7.542-4.446 8.004-10.327.065-.82.065-27.469-.002-28.306C49.456 4.571 45.6.961 40.518.23 39.354.06 39.12.01 33.145 0 11.951.012 7.305-.932 3.125 3.404z" fill="url(#paint0_linear)"/><path d="M24.992 6.539c-7.564 0-14.748-.673-17.491 6.369-1.134 2.908-.97 6.685-.97 12.093 0 4.746-.151 9.207.97 12.092 2.737 7.046 9.979 6.37 17.487 6.37 7.244 0 14.712.755 17.49-6.37 1.135-2.938.968-6.658.968-12.092 0-7.212.398-11.868-3.1-15.364-3.541-3.542-8.33-3.098-15.362-3.098h.008zm-1.654 3.327c15.78-.025 17.788-1.78 16.68 22.59-.395 8.618-6.957 7.672-15.024 7.672-14.708 0-15.131-.42-15.131-15.135 0-14.885 1.167-15.119 13.475-15.131v.004zm11.508 3.065a2.215 2.215 0 100 4.429 2.215 2.215 0 000-4.43zm-9.854 2.59c-5.235 0-9.479 4.245-9.479 9.48a9.479 9.479 0 1018.956 0c0-5.235-4.241-9.48-9.477-9.48zm0 3.326c8.136 0 8.146 12.308 0 12.308-8.133 0-8.146-12.308 0-12.308z" fill="#fff"/></g><defs><linearGradient id="paint0_linear" x1="3.22" y1="46.807" x2="49.69" y2="6.588" gradientUnits="userSpaceOnUse"><stop stop-color="#FD5"/><stop offset=".5" stop-color="#FF543E"/><stop offset="1" stop-color="#C837AB"/></linearGradient><clipPath id="clip0"><rect width="50" height="50" rx="8" fill="#fff"/></clipPath></defs></svg>