<svg width="50" height="50" viewBox="0 0 50 50" fill="none" xmlns="http://www.w3.org/2000/svg"><g clip-path="url(#clip0)"><path d="M50 9.497a21.372 21.372 0 01-5.906 1.619 10.193 10.193 0 004.51-5.666 20.484 20.484 0 01-6.5 2.481 10.272 10.272 0 00-7.488-3.244c-5.675 0-10.244 4.607-10.244 10.254 0 .812.069 1.593.237 2.337-8.522-.415-16.062-4.5-21.128-10.722a10.32 10.32 0 00-1.403 5.182c0 3.55 1.828 6.696 4.553 8.518-1.647-.031-3.262-.51-4.631-1.262v.112c0 4.981 3.553 9.119 8.213 10.072-.835.228-1.744.338-2.688.338-.656 0-1.319-.038-1.94-.175 1.327 4.059 5.096 7.043 9.578 7.14a20.596 20.596 0 01-12.71 4.372c-.84 0-1.647-.037-2.453-.14 4.54 2.928 9.922 4.6 15.725 4.6 18.862 0 29.175-15.626 29.175-29.17 0-.452-.016-.89-.038-1.324 2.035-1.444 3.744-3.247 5.138-5.322z" fill="#03A9F4"/></g><defs><clipPath id="clip0"><rect width="50" height="50" rx="8" fill="#fff"/></clipPath></defs></svg>