<svg width="50" height="50" viewBox="0 0 50 50" fill="none" xmlns="http://www.w3.org/2000/svg"><g clip-path="url(#clip0)"><path d="M48.97 12.997a6.264 6.264 0 00-4.407-4.407C40.65 7.52 25 7.52 25 7.52s-15.65 0-19.563 1.03c-2.1.576-3.83 2.306-4.406 4.447C0 16.91 0 25.023 0 25.023s0 8.155 1.03 12.027a6.265 6.265 0 004.407 4.407C9.39 42.527 25 42.527 25 42.527s15.65 0 19.563-1.03a6.264 6.264 0 004.407-4.406C50 33.178 50 25.064 50 25.064s.041-8.154-1.03-12.067z" fill="red"/><path d="M20.016 32.52l13.014-7.496-13.014-7.496V32.52z" fill="#fff"/></g><defs><clipPath id="clip0"><rect width="50" height="50" rx="8" fill="#fff"/></clipPath></defs></svg>